<svg id="Icon_awesome-youtube" data-name="Icon awesome-youtube" xmlns="http://www.w3.org/2000/svg" width="32" height="22.5" viewBox="0 0 32 22.5">
  <path id="Icon_awesome-youtube-2" data-name="Icon awesome-youtube" d="M32.381,8.02a4.021,4.021,0,0,0-2.829-2.847c-2.5-.673-12.5-.673-12.5-.673s-10.007,0-12.5.673A4.021,4.021,0,0,0,1.719,8.02a42.18,42.18,0,0,0-.669,7.752,42.18,42.18,0,0,0,.669,7.752,3.961,3.961,0,0,0,2.829,2.8c2.5.673,12.5.673,12.5.673s10.007,0,12.5-.673a3.961,3.961,0,0,0,2.829-2.8,42.18,42.18,0,0,0,.669-7.752,42.18,42.18,0,0,0-.669-7.752Zm-18.6,12.51V11.015l8.364,4.758-8.364,4.758Z" transform="translate(-1.05 -4.5)" fill="#83d2e2"/>
</svg>
